<svg xmlns="http://www.w3.org/2000/svg" viewBox="0 0 496 384">
  <path d="M168.65 31.75C111.11 60.52 51.59 148.81 89.29 148.81c5.95 0 9.92-6.95 9.92-16.86 0-25.79 75.4-90.27 114.09-98.21 59.52-10.91 105.16 4 145.84 46.66 20.83 21.83 37.69 45.64 37.69 53.57 0 7.93 4.96 14.86 9.92 14.86 16.86 0 10.92-24.8-12.92-60.52-26.79-40.68-97.22-78.39-145.84-78.39-19.84 0-55.55 9.92-79.36 21.83zM54.56 181.55c-2.98 6.95-4.96 53.57-2.98 102.18 2.98 87.3 2.98 88.29 27.78 88.29h24.8v-99.21c0-95.24-0.99-99.21-22.82-102.18-11.9-1.98-23.81 3.06-26.78 10.93zM391.86 181.55c-2.97 6.95-4.95 53.57-2.97 102.18 2.98 87.3 2.98 88.29 27.78 88.29h24.8v-99.21c0-95.24-0.99-99.21-22.82-102.18-11.9-1.98-23.81 3.06-26.78 10.93zM9.92 227.18c-13.89 27.78-11.9 73.41 4.98 96.23 12.89 16.86 13.88 12.89 14.85-48.62 0-36.71-1.98-66.47-4.95-66.47-1.98 0-8.93 8.93-14.88 18.86zM467.26 272.82c0 63.49 0.99 67.46 13.89 50.6 7.93-10.91 14.88-33.73 14.88-50.6 0-16.86-6.95-39.68-14.88-50.6-12.89-16.86-13.89-12.87-13.89 50.6z" fill="#000"/>
</svg>
