<svg xmlns="http://www.w3.org/2000/svg" viewBox="0.621291 9.8219 495.5 362.3">
	<path d="M 168.6523 31.7461 C 111.1094 60.5156 51.5859 148.8086 89.2852 148.8086 C 95.2383 148.8086 99.207 141.8633 99.207 131.9453 C 99.207 106.1523 174.6016 41.668 213.293 33.7305 C 272.8164 22.8164 318.4531 37.6992 359.1289 80.3555 C 379.9609 102.1836 396.8242 125.9922 396.8242 133.9297 C 396.8242 141.8633 401.7852 148.8086 406.7461 148.8086 C 423.6094 148.8086 417.6602 124.0078 393.8477 88.293 C 367.0625 47.6172 296.6289 9.9219 248.0156 9.9219 C 228.1758 9.9219 192.4609 19.8398 168.6523 31.7461 Z M 168.6523 31.7461 M 54.5625 181.5469 C 51.5859 188.4922 49.6016 235.1172 51.5859 283.7305 C 54.5625 371.0313 54.5625 372.0234 79.3633 372.0234 L 104.168 372.0234 L 104.168 272.8164 C 104.168 177.5781 103.1758 173.6094 81.3477 170.6367 C 69.4453 168.6523 57.5391 173.6094 54.5625 181.5469 Z M 54.5625 181.5469 M 391.8633 181.5469 C 388.8906 188.4922 386.9063 235.1172 388.8906 283.7305 C 391.8633 371.0313 391.8633 372.0234 416.668 372.0234 L 441.4688 372.0234 L 441.4688 272.8164 C 441.4688 177.5781 440.4766 173.6094 418.6523 170.6367 C 406.7461 168.6523 394.8398 173.6094 391.8633 181.5469 Z M 391.8633 181.5469 M 9.9219 227.1836 C -3.9688 254.9609 -1.9844 300.5938 14.8828 323.4141 C 27.7773 340.2773 28.7695 336.3086 29.7617 274.8008 C 29.7617 238.0938 27.7773 208.332 24.8008 208.332 C 22.8164 208.332 15.8711 217.2617 9.9219 227.1836 Z M 9.9219 227.1836 M 467.2617 272.8164 C 467.2617 336.3086 468.2539 340.2773 481.1523 323.4141 C 489.0859 312.5 496.0313 289.6836 496.0313 272.8164 C 496.0313 255.9531 489.0859 233.1367 481.1523 222.2227 C 468.2539 205.3555 467.2617 209.3242 467.2617 272.8164 Z M 467.2617 272.8164" stroke="#FF0000" stroke-width="0.1" fill="#000000"/>
</svg>